<?xml version="1.0" encoding="iso-8859-1"?>
<!-- Generator: Adobe Illustrator 19.0.0, SVG Export Plug-In . SVG Version: 6.00 Build 0)  -->
<svg version="1.1" id="Capa_1" xmlns="http://www.w3.org/2000/svg" xmlns:xlink="http://www.w3.org/1999/xlink" x="0px" y="0px"
	 viewBox="0 0 436.24 436.24" style="enable-background:new 0 0 436.24 436.24; background-color: #fed7d7" xml:space="preserve">
<g>
	<g>
		<polygon style="fill:#f7fafc;" points="379.068,172.667 426.089,240.063 332.57,240.063 		"/>
		<polygon style="fill:#f7fafc;" points="103.738,196.177 57.24,263.573 10.742,196.177 		"/>
	</g>
	<g>
		<path style="fill:#e53e3e;" d="M247.411,262.006c-17.475,6.819-37.326,2.727-50.678-10.449c-0.522-0.522-1.045-1.567-2.09-2.09
			h44.408c5.771,0,10.449-4.678,10.449-10.449c0-5.771-4.678-10.449-10.449-10.449h-54.857c-0.864-3.412-1.216-6.933-1.045-10.449
			h61.127c5.771,0,10.449-4.678,10.449-10.449c0-5.771-4.678-10.449-10.449-10.449h-56.424c2.171-4.687,5.181-8.936,8.882-12.539
			c13.352-13.175,33.203-17.268,50.678-10.449c5.482,2.02,11.564-0.787,13.584-6.269c2.02-5.482-0.787-11.564-6.269-13.584
			c-25.172-9.651-53.67-3.501-72.62,15.673c-7.768,7.507-13.518,16.85-16.718,27.167h-9.927c-5.771,0-10.449,4.678-10.449,10.449
			c0,5.771,4.678,10.449,10.449,10.449h6.792c-0.087,3.491,0.088,6.984,0.522,10.449h-7.314c-5.771,0-10.449,4.678-10.449,10.449
			c0,5.771,4.678,10.449,10.449,10.449h14.106c3.102,6.305,7.355,11.975,12.539,16.718c12.667,12.924,29.969,20.258,48.065,20.376
			c8.409,0.003,16.742-1.593,24.555-4.702c5.482-2.02,8.289-8.101,6.269-13.584S252.893,259.986,247.411,262.006L247.411,262.006z"
			/>
		<path style="fill:#e53e3e;" d="M434.448,234.316L387.95,166.92c-1.963-2.982-5.312-4.755-8.882-4.702l0,0
			c-3.409,0.028-6.565,1.803-8.359,4.702l-46.498,67.396c-2.183,2.892-2.39,6.821-0.522,9.927c1.658,3.353,5.146,5.404,8.882,5.224
			h33.437c-14.629,78.367-86.204,123.298-148.376,123.298c-44.408,0-91.951-24.033-120.686-61.127
			c-3.227-4.432-9.436-5.408-13.868-2.181c-0.264,0.192-0.517,0.397-0.761,0.614c-4.449,3.62-5.148,10.149-1.567,14.629
			c32.803,42.563,83.155,67.931,136.882,68.963c71.575,0,155.167-55.38,169.796-144.196h38.661c3.736,0.18,7.224-1.872,8.882-5.224
			C436.837,241.137,436.631,237.208,434.448,234.316z M352.423,228.569l26.645-38.661l26.645,38.661H352.423z"/>
		<path style="fill:#e53e3e;" d="M355.558,111.54c-32.803-42.563-83.155-67.931-136.882-68.963
			c-71.575,0-155.167,55.38-169.796,144.196H10.219c-3.736-0.18-7.224,1.872-8.882,5.224c-1.958,3.267-1.752,7.393,0.522,10.449
			l46.498,66.873c1.963,2.982,5.312,4.755,8.882,4.702l0,0c3.409-0.028,6.565-1.803,8.359-4.702l46.498-67.396
			c2.183-2.892,2.39-6.821,0.522-9.927c-1.658-3.353-5.146-5.404-8.882-5.224H70.301C84.93,108.406,156.505,63.475,218.676,63.475
			c44.408,0,91.951,24.033,120.686,61.127c3.227,4.432,9.436,5.408,13.868,2.181c0.264-0.192,0.517-0.397,0.761-0.614
			C358.439,122.549,359.139,116.021,355.558,111.54z M57.24,246.332l-26.645-38.661h53.29L57.24,246.332z"/>
	</g>
</g>
<g>
</g>
<g>
</g>
<g>
</g>
<g>
</g>
<g>
</g>
<g>
</g>
<g>
</g>
<g>
</g>
<g>
</g>
<g>
</g>
<g>
</g>
<g>
</g>
<g>
</g>
<g>
</g>
<g>
</g>
</svg>
